<svg width="58" height="30" viewBox="0 0 58 30" fill="none" xmlns="http://www.w3.org/2000/svg">
<rect width="58" height="30" rx="15" fill="#FE7235"/>
<path d="M27.7402 16.7461H19.3183V17.9492H26.2226V21.2168H27.7402V16.7461ZM17.5546 12.5352C17.5546 14.3125 18.956 15.5703 20.8222 15.5703C21.8476 15.5703 22.7363 15.1738 23.3241 14.5176H26.2226V16.1582H27.7402V8.85742H26.2226V10.5664H23.3105C22.7294 9.91699 21.8407 9.53418 20.8222 9.54102C18.956 9.52734 17.5546 10.7852 17.5546 12.5352ZM19.0038 12.5352C19.0038 11.5029 19.7626 10.8193 20.8222 10.8262C21.8339 10.8193 22.6064 11.5029 22.6132 12.5352C22.6064 13.6084 21.8339 14.2783 20.8222 14.2852C19.7626 14.2783 19.0038 13.6084 19.0038 12.5352ZM23.9667 13.2871C24.0282 13.0479 24.0624 12.7949 24.0624 12.5352C24.0624 12.2822 24.0282 12.043 23.9736 11.8105H26.2226V13.2871H23.9667ZM33.9198 10.5664V9.5H32.3886V10.6074C32.3886 12.3711 31.37 14.0186 29.3671 14.709L30.1738 15.9121C31.6435 15.3857 32.662 14.3398 33.2021 13.0137C33.7489 14.1689 34.6991 15.085 36.0116 15.5566L36.832 14.3672C34.9111 13.7383 33.9062 12.1865 33.9198 10.5664ZM31.2538 21.0664H39.2382V16.541H31.2538V21.0664ZM32.7577 19.8359V17.7578H37.7343V19.8359H32.7577ZM37.7206 16.0352H39.2382V13.0137H40.9609V11.7695H39.2382V8.85742H37.7206V16.0352Z" fill="white"/>
</svg>
