<svg width="50" height="24" viewBox="0 0 50 24" fill="none" xmlns="http://www.w3.org/2000/svg">
<rect width="50" height="24" rx="12" fill="#FE7235"/>
<path d="M23.8516 13.2109H16.6328V14.2422H22.5508V17.043H23.8516V13.2109ZM15.1211 9.60156C15.1211 11.125 16.3223 12.2031 17.9219 12.2031C18.8008 12.2031 19.5625 11.8633 20.0664 11.3008H22.5508V12.707H23.8516V6.44922H22.5508V7.91406H20.0547C19.5566 7.35742 18.7949 7.0293 17.9219 7.03516C16.3223 7.02344 15.1211 8.10156 15.1211 9.60156ZM16.3633 9.60156C16.3633 8.7168 17.0137 8.13086 17.9219 8.13672C18.7891 8.13086 19.4512 8.7168 19.457 9.60156C19.4512 10.5215 18.7891 11.0957 17.9219 11.1016C17.0137 11.0957 16.3633 10.5215 16.3633 9.60156ZM20.6172 10.2461C20.6699 10.041 20.6992 9.82422 20.6992 9.60156C20.6992 9.38477 20.6699 9.17969 20.623 8.98047H22.5508V10.2461H20.6172ZM29.1484 7.91406V7H27.8359V7.94922C27.8359 9.46094 26.9629 10.873 25.2461 11.4648L25.9375 12.4961C27.1973 12.0449 28.0703 11.1484 28.5332 10.0117C29.002 11.002 29.8164 11.7871 30.9414 12.1914L31.6445 11.1719C29.998 10.6328 29.1367 9.30273 29.1484 7.91406ZM26.8633 16.9141H33.707V13.0352H26.8633V16.9141ZM28.1523 15.8594V14.0781H32.418V15.8594H28.1523ZM32.4062 12.6016H33.707V10.0117H35.1836V8.94531H33.707V6.44922H32.4062V12.6016Z" fill="white"/>
</svg>
