<svg width="90" height="30" viewBox="0 0 90 30" fill="none" xmlns="http://www.w3.org/2000/svg">
<rect width="90" height="30" rx="15" fill="#FE7332"/>
<path d="M42.9909 8.48828V12.125H44.7409V13.1914H42.9909V16.7324H41.692V8.48828H42.9909ZM33.2702 15.3652C34.2204 15.3652 35.3209 15.3652 36.4694 15.3379V14.5107C35.0749 14.3535 34.1862 13.6973 34.1999 12.7129C34.1862 11.5918 35.3551 10.8945 37.112 10.9082C38.8688 10.8945 40.0172 11.5918 40.0241 12.7129C40.0172 13.6904 39.1491 14.3467 37.7682 14.5107V15.29C38.862 15.2354 39.9694 15.1465 40.9948 14.9961L41.1042 15.9258C38.4723 16.3838 35.567 16.4043 33.4069 16.4043L33.2702 15.3652ZM33.5846 10.498V9.52734H36.4694V8.37891H37.7682V9.52734H40.653V10.498H33.5846ZM34.8014 18.3184V17.3066H42.9909V20.7246H41.692V18.3184H34.8014ZM35.4303 12.7129C35.4303 13.2871 36.0661 13.6631 37.112 13.6562C38.1442 13.6631 38.7868 13.2871 38.7799 12.7129C38.7868 12.125 38.1442 11.7832 37.112 11.7969C36.0661 11.7832 35.4303 12.125 35.4303 12.7129ZM55.61 8.48828V17.3887H54.3112V8.48828H55.61ZM45.6979 12.3438C45.7047 10.5732 47.1129 9.31543 48.9655 9.30859C50.8112 9.31543 52.2194 10.5732 52.2194 12.3438C52.2194 14.1416 50.8112 15.3926 48.9655 15.3926C47.1129 15.3926 45.7047 14.1416 45.6979 12.3438ZM46.9694 12.3438C46.9626 13.499 47.8239 14.2578 48.9655 14.2578C50.0866 14.2578 50.9479 13.499 50.9479 12.3438C50.9479 11.2158 50.0866 10.4434 48.9655 10.4434C47.8239 10.4434 46.9626 11.2158 46.9694 12.3438ZM47.5983 20.4648V16.4863H48.9108V19.4121H55.9792V20.4648H47.5983Z" fill="white"/>
</svg>
