<svg width="209" height="34" viewBox="0 0 209 34" fill="none" xmlns="http://www.w3.org/2000/svg">
<rect x="0.5" width="208" height="34" rx="17" fill="#FE7235"/>
<path d="M41.2978 10.2656H39.6259V15.8281H38.0634V10.5312H36.4384V23.6719H38.0634V17.25H39.6259V24.3906H41.2978V10.2656ZM29.7822 20.875H30.7197C32.2119 20.875 33.8291 20.7734 35.7353 20.4375L35.5634 18.9219C34.0791 19.2109 32.7509 19.3203 31.5322 19.3438V11.8906H29.7822V20.875ZM54.2234 10.2656H52.4891V24.3594H54.2234V17.2344H56.3172V15.7812H54.2234V10.2656ZM43.0828 20.5L44.0672 21.8438C48.7625 19.5312 50.4813 15.8828 50.4891 11.7344H43.8484V13.1719H48.7234C48.3797 16.3906 46.5203 18.7812 43.0828 20.5ZM68.3559 11.4531H61.7153V18.1562H68.3559V15.4688H71.1997V20.5625H72.9341V10.2812H71.1997V14.0781H68.3559V11.4531ZM63.4497 16.7812V12.8281H66.6372V16.7812H63.4497ZM63.6684 24.1094H73.2934V22.7031H65.4028V19.5938H63.6684V24.1094ZM86.9378 10.2656H85.2034V15.2656H82.4847V16.6875H85.2034V24.4062H86.9378V10.2656ZM74.9066 20.3438L75.9534 21.7031C77.5941 20.875 78.7972 19.1953 79.4144 17.2031C80.0316 19.0703 81.2034 20.6406 82.8441 21.4219L83.8753 20.0312C81.6019 19.0391 80.2816 16.4609 80.2816 14.0156V13.0781H83.3128V11.6562H75.4847V13.0781H78.5159V14.0156C78.5003 16.6016 77.1644 19.2734 74.9066 20.3438ZM99.0234 11.7969H93.4766V20.75H99.0234V16.875H100.664V23.7031H102.32V10.5156H100.664V15.4688H99.0234V11.7969ZM95.1016 19.375V13.1719H97.3984V19.375H95.1016ZM103.555 24.3906H105.227V10.2656H103.555V24.3906ZM118.433 14.8281H110.355V10.9375H108.621V16.2344H118.433V14.8281ZM107.027 19.375H110.137V24.3906H111.871V19.375H115.058V24.3906H116.808V19.375H119.902V17.9688H107.027V19.375ZM137.128 10.2656H135.472V24.3906H137.128V10.2656ZM124.722 20.375L125.785 21.6719C127.113 20.8438 128.011 19.3594 128.511 17.6172C129.003 19.2266 129.871 20.5703 131.175 21.3438L132.207 20.0625C130.183 18.8984 129.332 16.5078 129.332 14.125V13.1875H131.613V11.7812H125.207V13.1875H127.66V14.125C127.66 16.5859 126.761 19.1328 124.722 20.375ZM130.582 16.5938H132.613V23.7031H134.253V10.5312H132.613V15.1875H130.582V16.5938ZM151.867 21.2656H146.242V18.5156H150.398V11.2031H148.663V13.5156H142.117V11.2031H140.382V18.5156H144.523V21.2656H138.96V22.6875H151.867V21.2656ZM142.117 17.1094V14.9062H148.663V17.1094H142.117ZM164.011 10.2656H162.292V24.3906H164.011V17.3281H166.183V15.8906H164.011V10.2656ZM152.87 13.8281H161.198V12.4375H157.948V10.4688H156.214V12.4375H152.87V13.8281ZM153.527 18.0781C153.511 20.0234 155.027 21.3906 157.089 21.3906C159.12 21.3906 160.628 20.0234 160.636 18.0781C160.628 16.125 159.12 14.7422 157.089 14.75C155.027 14.7422 153.511 16.125 153.527 18.0781ZM155.183 18.0781C155.175 16.9297 155.98 16.1719 157.089 16.1719C158.175 16.1719 158.964 16.9297 158.98 18.0781C158.964 19.2266 158.175 19.9609 157.089 19.9531C155.98 19.9609 155.175 19.2266 155.183 18.0781ZM178.733 10.2656H176.983V24.3906H178.733V10.2656ZM167.03 20.5L167.937 21.8906C172.882 19.5391 174.515 15.9688 174.515 11.7656H167.749V13.1406H172.749C172.437 16.3516 170.733 18.7422 167.03 20.5Z" fill="white"/>
</svg>
