<svg width="30" height="30" viewBox="0 0 30 30" fill="none" xmlns="http://www.w3.org/2000/svg">
<g clip-path="url(#clip0_224_1005)">
<path d="M4.75639 15.1941L4.75652 15.1941L4.75402 15.1844C4.66907 14.8547 4.58002 14.2839 4.511 13.7718C4.477 13.5196 4.44867 13.2878 4.42887 13.1165C4.41896 13.0307 4.41125 12.9607 4.40607 12.9111C4.40152 12.8676 4.40032 12.8519 4.40003 12.8519C4.40002 12.8519 4.40001 12.852 4.4 12.852V12.3896C4.4 6.28527 9.13783 1.4 15 1.4C20.7276 1.4 25.6 6.28857 25.6 12.3896V12.8642C25.6 12.8625 25.5994 12.8688 25.598 12.8833C25.5946 12.9184 25.5865 13.0017 25.5711 13.1367C25.5513 13.3096 25.5231 13.5396 25.4891 13.7887C25.4202 14.294 25.3311 14.854 25.246 15.1844L25.2459 15.1844L25.2436 15.1941C24.015 20.5101 19.8857 24.611 15 28.4894C10.1143 24.6105 5.98501 20.5101 4.75639 15.1941Z" fill="#FE7235" stroke="#DC5B22" stroke-width="0.8"/>
<g clip-path="url(#clip1_224_1005)">
<path d="M18.0556 7.36377C16.3708 7.36377 15 9.09621 15 11.226C15 12.722 15.6909 14.08 16.746 14.713V19.9155C16.746 20.7141 17.3335 21.3638 18.0556 21.3638C18.7776 21.3638 19.3651 20.7141 19.3651 19.9155V14.713C20.4202 14.08 21.1111 12.722 21.1111 11.226C21.1109 9.09621 19.74 7.36377 18.0553 7.36377H18.0556Z" fill="#FCF5EF"/>
<path d="M13.6905 7.84668C13.4491 7.84668 13.254 8.06277 13.254 8.32943V11.7087C13.254 11.9753 13.0586 12.1914 12.8175 12.1914H12.381C12.1399 12.1914 11.9445 11.9753 11.9445 11.7087V8.32972C11.9445 8.06305 11.7491 7.84697 11.508 7.84697C11.2669 7.84697 11.0715 8.06305 11.0715 8.32972V11.709C11.0715 11.9756 10.8761 12.1917 10.635 12.1917H10.1985C9.95734 12.1917 9.76195 11.9756 9.76195 11.709V8.32972C9.76195 8.06305 9.56682 7.84697 9.32544 7.84697C9.08406 7.84697 8.88867 8.06277 8.88867 8.32972V12.6742C8.88867 13.5721 9.44574 14.3293 10.1982 14.5442V19.8582C10.1982 20.5588 10.6251 21.2022 11.2466 21.3355C12.0827 21.5151 12.8172 20.8085 12.8172 19.9151V14.5442C13.5697 14.3293 14.1268 13.5724 14.1268 12.6742V8.32943C14.1268 8.06277 13.9316 7.84668 13.6903 7.84668H13.6905Z" fill="#FCF5EF"/>
</g>
</g>
<defs>
<clipPath id="clip0_224_1005">
<rect width="22" height="28" fill="white" transform="translate(4 1)"/>
</clipPath>
<clipPath id="clip1_224_1005">
<rect width="12.2222" height="14" fill="white" transform="translate(8.88867 7.36377)"/>
</clipPath>
</defs>
</svg>
