<svg width="30" height="30" viewBox="0 0 30 30" fill="none" xmlns="http://www.w3.org/2000/svg">
<g clip-path="url(#clip0_614_20102)">
<path d="M4.75639 15.1941L4.75652 15.1941L4.75402 15.1844C4.66907 14.8547 4.58002 14.2839 4.511 13.7718C4.477 13.5196 4.44867 13.2878 4.42887 13.1165C4.41896 13.0307 4.41125 12.9607 4.40607 12.9111C4.40152 12.8676 4.40032 12.8519 4.40003 12.8519C4.40002 12.8519 4.40001 12.852 4.4 12.852V12.3896C4.4 6.28527 9.13783 1.4 15 1.4C20.7276 1.4 25.6 6.28857 25.6 12.3896V12.8642C25.6 12.8625 25.5994 12.8688 25.598 12.8833C25.5946 12.9184 25.5865 13.0017 25.5711 13.1367C25.5513 13.3096 25.5231 13.5396 25.4891 13.7887C25.4202 14.294 25.3311 14.854 25.246 15.1844L25.2459 15.1844L25.2436 15.1941C24.015 20.5101 19.8857 24.611 15 28.4894C10.1143 24.6105 5.98501 20.5101 4.75639 15.1941Z" fill="#FE7235" stroke="#DC5B22" stroke-width="0.8"/>
<g clip-path="url(#clip1_614_20102)">
<path d="M18.0556 7.36353C16.3708 7.36353 15 9.09596 15 11.2258C15 12.7217 15.6909 14.0798 16.746 14.7128V19.9153C16.746 20.7138 17.3335 21.3635 18.0556 21.3635C18.7776 21.3635 19.3651 20.7138 19.3651 19.9153V14.7128C20.4202 14.0798 21.1111 12.7217 21.1111 11.2258C21.1109 9.09596 19.74 7.36353 18.0553 7.36353H18.0556Z" fill="#FCF5EF"/>
<path d="M13.6905 7.84619C13.4491 7.84619 13.254 8.06228 13.254 8.32894V11.7082C13.254 11.9748 13.0586 12.1909 12.8175 12.1909H12.381C12.1399 12.1909 11.9445 11.9748 11.9445 11.7082V8.32923C11.9445 8.06257 11.7491 7.84648 11.508 7.84648C11.2669 7.84648 11.0715 8.06257 11.0715 8.32923V11.7085C11.0715 11.9751 10.8761 12.1912 10.635 12.1912H10.1985C9.95734 12.1912 9.76195 11.9751 9.76195 11.7085V8.32923C9.76195 8.06257 9.56682 7.84648 9.32544 7.84648C9.08406 7.84648 8.88867 8.06228 8.88867 8.32923V12.6737C8.88867 13.5716 9.44574 14.3288 10.1982 14.5438V19.8577C10.1982 20.5583 10.6251 21.2017 11.2466 21.335C12.0827 21.5146 12.8172 20.808 12.8172 19.9146V14.5438C13.5697 14.3288 14.1268 13.5719 14.1268 12.6737V8.32894C14.1268 8.06228 13.9316 7.84619 13.6903 7.84619H13.6905Z" fill="#FCF5EF"/>
</g>
</g>
<defs>
<clipPath id="clip0_614_20102">
<rect width="22" height="28" fill="white" transform="translate(4 1)"/>
</clipPath>
<clipPath id="clip1_614_20102">
<rect width="12.2222" height="14" fill="white" transform="translate(8.88867 7.36353)"/>
</clipPath>
</defs>
</svg>
