<svg width="38" height="48" viewBox="0 0 38 48" fill="none" xmlns="http://www.w3.org/2000/svg">
<g clip-path="url(#clip0_671_16935)">
<path d="M1.50988 24.2831L1.50731 24.272L1.50446 24.2611C1.36145 23.7102 1.2091 22.744 1.08973 21.865C1.03122 21.4342 0.982452 21.0383 0.948388 20.7457C0.931347 20.5993 0.918123 20.48 0.909272 20.396C0.903414 20.3404 0.900943 20.3128 0.9 20.3039V19.525C0.9 9.17822 8.99041 0.9 19 0.9C28.7789 0.9 37.1 9.18562 37.1 19.525V20.3386C37.1 20.3275 37.0981 20.3459 37.0929 20.3971C37.0861 20.4648 37.0734 20.5901 37.0515 20.7807C37.0176 21.0756 36.9689 21.4682 36.9105 21.8936C36.7914 22.7604 36.639 23.7086 36.4955 24.2611L36.4927 24.272L36.4901 24.2831C34.3969 33.2719 27.3806 40.2372 19 46.8543C10.6194 40.2363 3.60311 33.2719 1.50988 24.2831Z" fill="#FE7235" stroke="#DC5B22" stroke-width="1.8"/>
<g clip-path="url(#clip1_671_16935)">
<path d="M24.2797 10.9092C21.3698 10.9092 19.002 13.8791 19.002 17.5302C19.002 20.0947 20.1953 22.4227 22.0178 23.5079V32.4265C22.0178 33.7954 23.0325 34.9092 24.2797 34.9092C25.5269 34.9092 26.5416 33.7954 26.5416 32.4265V23.5079C28.3642 22.4227 29.5575 20.0947 29.5575 17.5302C29.5571 13.8791 27.1892 10.9092 24.2793 10.9092H24.2797Z" fill="#FCF5EF"/>
<path d="M16.7394 11.7368C16.3225 11.7368 15.9854 12.1073 15.9854 12.5644V18.3574C15.9854 18.8145 15.648 19.1849 15.2315 19.1849H14.4775C14.061 19.1849 13.7235 18.8145 13.7235 18.3574V12.5649C13.7235 12.1077 13.386 11.7373 12.9696 11.7373C12.5531 11.7373 12.2156 12.1077 12.2156 12.5649V18.3579C12.2156 18.815 11.8781 19.1854 11.4616 19.1854H10.7077C10.2912 19.1854 9.9537 18.815 9.9537 18.3579V12.5649C9.9537 12.1077 9.61666 11.7373 9.19973 11.7373C8.7828 11.7373 8.44531 12.1073 8.44531 12.5649V20.0125C8.44531 21.5519 9.40752 22.8499 10.7072 23.2184V32.328C10.7072 33.529 11.4446 34.6319 12.5181 34.8605C13.9623 35.1684 15.231 33.957 15.231 32.4256V23.2184C16.5307 22.8499 17.4929 21.5524 17.4929 20.0125V12.5644C17.4929 12.1073 17.1559 11.7368 16.739 11.7368H16.7394Z" fill="#FCF5EF"/>
</g>
</g>
<defs>
<clipPath id="clip0_671_16935">
<rect width="38" height="48" fill="white"/>
</clipPath>
<clipPath id="clip1_671_16935">
<rect width="21.1111" height="24" fill="white" transform="translate(8.44531 10.9092)"/>
</clipPath>
</defs>
</svg>
