<svg width="238" height="36" viewBox="0 0 238 36" fill="none" xmlns="http://www.w3.org/2000/svg">
<path d="M10.3223 0.953125H9.24219V3.27734H7.16406V4.16602H9.24219V5.57422H7.16406V6.47656H9.24219V10.0039H10.3223V0.953125ZM0.273438 7.24219L0.410156 8.1582C2.38574 8.15137 5.16113 8.11035 7.51953 7.74805L7.46484 6.94141C6.93848 7.00293 6.38477 7.05078 5.82422 7.08496V2.82617H7.06836V1.95117H0.615234V2.82617H1.8457V7.22852C1.28516 7.23535 0.758789 7.24219 0.273438 7.24219ZM2.48828 12.8477H10.6504V11.9453H3.56836V9.25195H2.48828V12.8477ZM2.88477 7.20801V2.82617H4.78516V7.14648C4.14941 7.17383 3.50684 7.19434 2.88477 7.20801ZM22.3809 0.953125H21.3145V13.1348H22.3809V0.953125ZM13.0293 2.97656H17.6094V5.5332H13.0566V10.1816H14.0684C16.167 10.1816 18.0127 10.0928 20.248 9.74414L20.1387 8.8418C17.9648 9.19043 16.167 9.28613 14.1504 9.2793V6.4082H18.6895V2.08789H13.0293V2.97656ZM33.9473 0.966797H32.8809V10.0723H33.9473V5.875H35.7793V4.97266H33.9473V0.966797ZM24.4727 3.33203H31.7188V2.45703H28.6289V0.966797H27.5625V2.45703H24.4727V3.33203ZM25.1699 6.27148C25.1631 7.63867 26.3389 8.52051 28.0957 8.51367C29.832 8.52051 31.0078 7.63867 31.0215 6.27148C31.0078 4.89062 29.832 4.00195 28.0957 4.00195C26.3389 4.00195 25.1631 4.89062 25.1699 6.27148ZM26.1953 6.27148C26.1885 5.40332 26.9473 4.84277 28.0957 4.84961C29.2305 4.84277 29.9961 5.40332 30.0098 6.27148C29.9961 7.12598 29.2305 7.67969 28.0957 7.66602C26.9473 7.67969 26.1885 7.12598 26.1953 6.27148ZM26.3457 12.8477H34.5078V11.9453H27.3984V9.34766H26.3457V12.8477ZM50.0801 0.966797H49.0273V13.1211H50.0801V0.966797ZM40.0312 7.625L40.1816 8.51367C41.207 8.52734 42.3691 8.52734 43.5859 8.49316V12.7383H44.666V8.45215C45.835 8.39062 47.0381 8.28809 48.207 8.11719L48.1387 7.31055C45.4385 7.63184 42.3896 7.63184 40.0312 7.625ZM41.125 6.32617H47.0723V1.47266H46.0195V2.96289H42.2051V1.47266H41.125V6.32617ZM42.2051 5.45117V3.81055H46.0195V5.45117H42.2051ZM62.6172 0.953125H61.5781V13.1074H62.6172V0.953125ZM52.0215 9.18359L52.1582 10.0996C53.7441 10.1064 56.2939 10.0449 58.2148 9.68945L58.1465 8.89648C57.7432 8.95117 57.3057 8.99219 56.8477 9.0332V3.40039H57.873V2.51172H52.2812V3.40039H53.3066V9.17676C52.835 9.18359 52.3975 9.18359 52.0215 9.18359ZM54.291 9.15625V3.40039H55.8496V9.09473C55.3301 9.12207 54.7969 9.14258 54.291 9.15625ZM57.5176 6.54492H59.2129V12.4648H60.2383V1.25391H59.2129V5.57422H57.5176V6.54492ZM74.0469 1.74609H68.5371V2.63477H72.9053C72.6729 4.69922 70.8135 6.3125 67.9082 7.13281L68.3594 7.98047C71.8594 6.98242 74.04 4.79492 74.0469 1.74609ZM69.959 12.9434H77.8477V8.41797H69.959V12.9434ZM70.998 12.0684V9.2793H76.7812V12.0684H70.998ZM74.0742 5H76.7676V7.89844H77.8477V0.966797H76.7676V4.09766H74.0742V5ZM83.4941 3.33203V1.70508H82.4688V3.33203C82.4619 4.71973 81.4844 6.3125 79.8848 7.02344L80.4727 7.85742C81.6621 7.33105 82.5371 6.29199 82.9883 5.11621C83.4189 6.18945 84.2529 7.08496 85.4082 7.55664L85.9824 6.72266C84.4238 6.11426 83.501 4.71973 83.4941 3.33203ZM82.0039 9.86719H89.1406V13.1074H90.1934V8.97852H82.0039V9.86719ZM86.543 8.24023H87.5547V5.04102H89.168V8.30859H90.1934V0.966797H89.168V4.13867H87.5547V1.18555H86.543V8.24023ZM97.5078 1.17188C94.7939 1.17188 93.2012 1.91699 93.2012 3.26367C93.2012 4.64453 94.7939 5.38965 97.5078 5.39648C100.208 5.38965 101.794 4.64453 101.801 3.26367C101.794 1.91699 100.208 1.17188 97.5078 1.17188ZM91.9707 7.0918H103.045V6.2168H91.9707V7.0918ZM93.3105 8.96484H100.57V10.0723H93.3379V12.9707H101.992V12.123H94.4043V10.8652H101.623V8.14453H93.3105V8.96484ZM94.3223 3.26367C94.3086 2.46387 95.4912 1.98535 97.5078 1.97852C99.5244 1.98535 100.7 2.46387 100.707 3.26367C100.7 4.11133 99.5244 4.57617 97.5078 4.57617C95.4912 4.57617 94.3086 4.11133 94.3223 3.26367ZM111.59 1.55469C109.771 1.54102 108.473 2.5459 108.473 4.0293C108.473 5.5127 109.771 6.52441 111.59 6.51758C113.408 6.52441 114.714 5.5127 114.707 4.0293C114.714 2.5459 113.408 1.54102 111.59 1.55469ZM107.557 7.55664L107.707 8.47266C108.719 8.46582 109.888 8.45898 111.125 8.4043V12.7383H112.191V8.34277C113.367 8.26758 114.57 8.1377 115.732 7.92578L115.664 7.11914C112.964 7.51562 109.84 7.56348 107.557 7.55664ZM109.525 4.0293C109.512 3.08594 110.38 2.41602 111.59 2.42969C112.813 2.41602 113.688 3.08594 113.682 4.0293C113.688 4.97949 112.813 5.63574 111.59 5.62891C110.38 5.63574 109.512 4.97949 109.525 4.0293ZM116.553 13.1211H117.605V0.966797H116.553V13.1211ZM125.754 3.05859H123.252V1.32227H122.186V3.05859H119.656V3.93359H125.754V3.05859ZM120.094 7.51562C120.094 9.14941 121.194 10.2979 122.705 10.3047C124.236 10.2979 125.33 9.14941 125.344 7.51562C125.33 5.90234 124.236 4.76074 122.705 4.75391C121.194 4.76074 120.094 5.90234 120.094 7.51562ZM121.051 7.51562C121.051 6.44922 121.741 5.66992 122.705 5.65625C123.676 5.66992 124.387 6.44922 124.387 7.51562C124.387 8.5957 123.676 9.36816 122.705 9.36133C121.741 9.36816 121.051 8.5957 121.051 7.51562ZM126.383 12.5059H127.395V6.96875H129.008V13.1074H130.033V0.953125H129.008V6.08008H127.395V1.25391H126.383V12.5059ZM237.057 0.953125H236.018V13.1074H237.057V0.953125ZM226.789 6.20312C226.796 8.78711 227.821 10.4346 229.4 10.4277C230.897 10.4346 231.916 8.95117 232.019 6.58594H233.584V12.4922H234.609V1.21289H233.584V5.69727H232.012C231.875 3.40723 230.877 1.98535 229.4 1.97852C227.821 1.98535 226.796 3.61914 226.789 6.20312ZM227.801 6.20312C227.787 4.22754 228.416 2.99023 229.4 2.99023C230.392 2.99023 231.021 4.22754 231.014 6.20312C231.021 8.17188 230.392 9.41602 229.4 9.40234C228.416 9.41602 227.787 8.17188 227.801 6.20312ZM77.0684 28.9688H72.0371V27.5469H75.7695V26.6719H68.4414V24.3887H75.6875V23.5273H67.3887V27.5469H70.998V28.9688H65.9805V29.8301H77.0684V28.9688ZM67.3203 32.9062C67.3135 34.3076 68.8926 35.0938 71.5176 35.1074C74.1221 35.0938 75.6875 34.3076 75.7012 32.9062C75.6875 31.5186 74.1221 30.7256 71.5176 30.7188C68.8926 30.7256 67.3135 31.5186 67.3203 32.9062ZM68.4141 32.9062C68.4004 32.0654 69.5693 31.5664 71.5176 31.5664C73.4453 31.5664 74.6143 32.0654 74.6211 32.9062C74.6143 33.7607 73.4453 34.2529 71.5176 34.2461C69.5693 34.2529 68.4004 33.7607 68.4141 32.9062ZM82.0586 23.8418C80.1377 23.8486 78.7705 25.0107 78.7773 26.6992C78.7705 28.3945 80.1377 29.5498 82.0586 29.5566C83.9658 29.5498 85.3193 28.3945 85.3262 26.6992C85.3193 25.0107 83.9658 23.8486 82.0586 23.8418ZM78.1484 31.5391L78.2988 32.4551C80.4863 32.4551 83.4736 32.4414 86.2559 31.9219L86.1738 31.1289C83.4873 31.5254 80.3906 31.5459 78.1484 31.5391ZM79.8301 26.6992C79.8232 25.5713 80.7598 24.7852 82.0586 24.7852C83.3438 24.7852 84.2803 25.5713 84.2734 26.6992C84.2803 27.834 83.3438 28.6133 82.0586 28.6133C80.7598 28.6133 79.8232 27.834 79.8301 26.6992ZM86.9805 35.1348H88.0469V22.9531H86.9805V35.1348ZM103.1 22.9531H102.033V35.1074H103.1V28.8594H105.137V27.9707H103.1V22.9531ZM93.625 25.7969H100.857V24.9082H97.8223V23.1035H96.7559V24.9082H93.625V25.7969ZM94.3223 29.5977C94.3154 31.2451 95.5732 32.3867 97.3027 32.3867C99.0186 32.3867 100.27 31.2451 100.283 29.5977C100.27 27.957 99.0186 26.8086 97.3027 26.8086C95.5732 26.8086 94.3154 27.957 94.3223 29.5977ZM95.3477 29.5977C95.3408 28.4971 96.168 27.7041 97.3027 27.7109C98.4238 27.7041 99.2441 28.4971 99.2578 29.5977C99.2441 30.7051 98.4238 31.4844 97.3027 31.4707C96.168 31.4844 95.3408 30.7051 95.3477 29.5977ZM110.113 26.2207V24.0059H109.047V26.2207C109.033 28.5244 107.536 30.8486 105.725 31.6758L106.408 32.5781C107.83 31.8604 109.026 30.3223 109.587 28.4902C110.168 30.2197 111.364 31.6621 112.752 32.332L113.408 31.4844C111.617 30.6709 110.106 28.4424 110.113 26.2207ZM114.734 35.1348H115.814V22.9531H114.734V35.1348ZM123.279 23.8555H118.535V24.7441H122.172C121.953 26.8018 120.511 28.415 118.016 29.4336L118.576 30.2266C120.251 29.5088 121.502 28.5312 122.295 27.3145H124.742V29.8027H125.768V23.2266H124.742V26.4258H122.773C123.108 25.6465 123.279 24.792 123.279 23.8555ZM118.617 34.2734L119.164 35.0664C120.319 34.6221 121.16 33.7676 121.598 32.7764C121.953 33.8018 122.691 34.7109 123.881 35.1758C125.016 34.6904 125.754 33.7471 126.123 32.7559C126.54 33.7812 127.395 34.6357 128.611 35.0664L129.145 34.2734C127.579 33.7607 126.656 32.4824 126.656 31.2246V30.4043H125.617V31.2246C125.61 32.1475 125.016 33.3848 123.847 34.1162C122.698 33.4531 122.117 32.3184 122.131 31.2246V30.4043H121.105V31.2246C121.105 32.3936 120.148 33.7197 118.617 34.2734ZM127.189 29.9941H128.215V22.9668H127.189V29.9941ZM132.467 30.2539H131.4V34.9434H139.617V30.2539H138.537V31.6758H132.467V30.2539ZM129.992 29.3926H141.066V28.5039H129.992V29.3926ZM130.621 26.7812L131.031 27.6426C132.904 27.3623 134.764 26.4121 135.536 25.0449C136.309 26.4053 138.161 27.3623 140.041 27.6426L140.438 26.7812C138.298 26.5078 136.083 25.1611 136.09 23.6641V23.0898H134.982V23.6641C134.982 25.209 132.788 26.4873 130.621 26.7812ZM132.467 34.082V32.5234H138.537V34.082H132.467ZM152.113 22.9531H151.047V35.1074H152.113V22.9531ZM142.885 31.9766H143.869C145.817 31.9766 147.738 31.8262 149.898 31.375L149.748 30.459C147.711 30.8896 145.797 31.0332 143.938 31.0469V24.1562H142.885V31.9766ZM163.816 22.9531H162.736V35.1074H163.816V28.873H165.662V27.9707H163.816V22.9531ZM154.15 31.7441L155.012 32.3594C157.22 30.0283 157.869 27.1709 157.883 24.2793H154.533V25.1816H156.864C156.728 27.6016 155.982 29.8643 154.15 31.7441ZM157.637 32.5645L158.512 33.166C160.788 30.5205 161.212 27.1641 161.219 24.2793H158.266V25.1816H160.207C160.104 27.7178 159.537 30.418 157.637 32.5645ZM168.232 31.1426V31.2109H169.408V31.1426C169.436 29.96 169.743 29.4336 170.598 28.9141C171.445 28.3945 171.951 27.6494 171.951 26.5762C171.951 25.0654 170.837 23.9648 169.121 23.9648C167.556 23.9648 166.305 24.9287 166.236 26.5898H167.48C167.556 25.4619 168.342 24.9971 169.121 25.0039C170.023 24.9971 170.748 25.5918 170.748 26.5215C170.748 27.2871 170.317 27.834 169.75 28.1758C168.807 28.75 168.246 29.3105 168.232 31.1426ZM167.986 33.1934C167.973 33.6787 168.383 34.0752 168.861 34.082C169.347 34.0752 169.743 33.6787 169.736 33.1934C169.743 32.7148 169.347 32.3184 168.861 32.3184C168.383 32.3184 167.973 32.7148 167.986 33.1934Z" fill="#616161"/>
<path d="M139.248 1.4043C137.389 1.39746 136.035 2.4502 136.035 4.00195C136.035 5.52637 137.389 6.59277 139.248 6.58594C141.128 6.59277 142.488 5.52637 142.488 4.00195C142.488 2.4502 141.128 1.39746 139.248 1.4043ZM135.229 7.43359L135.42 8.69141C136.35 8.68457 137.423 8.6709 138.564 8.62305V12.834H140.096V8.53418C141.176 8.45215 142.283 8.32227 143.35 8.11719L143.24 6.99609C140.581 7.39258 137.457 7.43359 135.229 7.43359ZM137.512 4.00195C137.505 3.14746 138.236 2.62109 139.248 2.63477C140.301 2.62109 141.039 3.14746 141.039 4.00195C141.039 4.8291 140.301 5.34863 139.248 5.3418C138.236 5.34863 137.505 4.8291 137.512 4.00195ZM144.047 13.2031H145.551V0.871094H144.047V13.2031ZM157.582 0.857422H156.064V13.2168H157.582V0.857422ZM147.438 9.70312L148.258 10.8789C149.7 10.25 150.767 8.93066 151.32 7.35156C151.888 8.8418 152.954 10.0723 154.369 10.6738L155.203 9.51172C153.207 8.67773 152.052 6.66113 152.059 4.78125V4.13867H154.711V2.92188H152.045V1.11719H150.541V2.92188H147.82V4.13867H150.541V4.78125C150.541 6.75684 149.406 8.83496 147.438 9.70312ZM167.303 3.82422V1.85547H165.758V3.82422C165.751 6.13477 164.63 8.51367 162.613 9.45703L163.57 10.6875C164.992 9.96973 166.004 8.54785 166.544 6.83887C167.07 8.45898 168.055 9.77148 169.449 10.4551L170.365 9.23828C168.396 8.37695 167.296 6.12109 167.303 3.82422ZM168.998 6.08008H171.596V13.2305H173.1V0.857422H171.596V4.84961H168.998V6.08008ZM185.117 0.857422H183.586V13.2305H185.117V0.857422ZM175.492 10.3184H181.508V1.86914H180.004V4.95898H177.01V1.86914H175.492V10.3184ZM177.01 9.07422V6.14844H180.004V9.07422H177.01ZM193.32 2.55273V1.63672H191.707V2.55273C191.7 4.45312 189.827 6.36719 187.277 6.83203L187.947 8.10352C190.012 7.66602 191.707 6.40137 192.521 4.75391C193.327 6.41504 195.022 7.67285 197.094 8.10352L197.777 6.83203C195.187 6.38086 193.32 4.45996 193.32 2.55273ZM186.936 11.6445H198.229V10.3867H186.936V11.6445ZM206.773 3.82422V1.85547H205.256V3.82422C205.249 6.10742 204.114 8.47266 202.125 9.41602L203.055 10.6328C204.47 9.92188 205.481 8.52734 206.021 6.8457C206.548 8.41797 207.512 9.72363 208.852 10.4004L209.781 9.18359C207.867 8.26074 206.76 6.03223 206.773 3.82422ZM210.52 13.2168H212.037V6.99609H213.938V5.69727H212.037V0.857422H210.52V13.2168ZM225.723 6.80469H223.057V5.23926C223.993 4.84961 224.526 4.22754 224.533 3.41406C224.526 1.93066 222.797 1.0625 220.076 1.0625C217.349 1.0625 215.619 1.93066 215.619 3.41406C215.619 4.2207 216.146 4.84277 217.082 5.23926V6.80469H214.457V8.02148H225.723V6.80469ZM215.77 10.9746C215.77 12.4102 217.376 13.1895 220.076 13.1895C222.735 13.1895 224.349 12.4102 224.355 10.9746C224.349 9.55273 222.735 8.75977 220.076 8.77344C217.376 8.75977 215.77 9.55273 215.77 10.9746ZM217.205 3.41406C217.191 2.65527 218.251 2.23145 220.076 2.23828C221.895 2.23145 222.961 2.65527 222.961 3.41406C222.961 4.16602 221.895 4.56934 220.076 4.5625C218.251 4.56934 217.191 4.16602 217.205 3.41406ZM217.314 10.9746C217.308 10.2842 218.278 9.92871 220.076 9.92188C221.847 9.92871 222.824 10.2842 222.838 10.9746C222.824 11.6719 221.847 12.0479 220.076 12.041C218.278 12.0479 217.308 11.6719 217.314 10.9746ZM218.613 6.80469V5.62891C219.058 5.69043 219.55 5.72461 220.076 5.72461C220.603 5.72461 221.095 5.69043 221.539 5.62891V6.80469H218.613Z" fill="#FE7332"/>
<path d="M134.805 14.1465H226.146V15.3223H134.805V14.1465Z" fill="#FE7332"/>
</svg>
