<svg width="25" height="24" viewBox="0 0 25 24" fill="none" xmlns="http://www.w3.org/2000/svg">
<path d="M12.51 16C12.24 16 11.99 15.9 11.8 15.71C11.6 15.51 11.51 15.28 11.51 15C11.5 14.45 11.94 14.01 12.49 14C12.5 14 12.5 14 12.51 14C12.79 14 13.02 14.1 13.22 14.29C13.4 14.48 13.5 14.72 13.5 14.99C13.5 15.26 13.4 15.5 13.21 15.7C13.02 15.9 12.78 16 12.51 16ZM11.63 12.34C11.63 11.89 11.73 11.5 11.92 11.18C12.11 10.85 12.45 10.48 12.92 10.06C13.2 9.81 13.4 9.59 13.53 9.4C13.66 9.21 13.72 9 13.72 8.76C13.72 8.47 13.61 8.23 13.4 8.02C13.19 7.82 12.9 7.72 12.55 7.72C12.18 7.72 11.81 7.82 11.59 8.02C11.38 8.22 11.19 8.47 11.19 9H9.5C9.5 7.99 9.96 7.27 10.47 6.79C11.03 6.28 11.75 6 12.5 6C13.09 6 13.61 6.12 14.07 6.35C14.53 6.58 14.86 6.9 15.12 7.31C15.38 7.72 15.5 8.17 15.5 8.66C15.5 9.15 15.4 9.56 15.19 9.91C14.98 10.26 14.71 10.62 14.3 11C13.98 11.3 13.77 11.56 13.65 11.77C13.53 11.98 13.47 12.26 13.47 12.58V13H11.62V12.34H11.63ZM18.5 10.2C18.5 6.57 15.85 4 12.5 4C9.15 4 6.5 6.57 6.5 10.2C6.5 12.54 8.45 15.64 12.5 19.34C16.55 15.64 18.5 12.54 18.5 10.2ZM12.5 2C16.7 2 20.5 5.22 20.5 10.2C20.5 13.52 17.83 17.45 12.5 22C7.17 17.45 4.5 13.52 4.5 10.2C4.5 5.22 8.3 2 12.5 2Z" fill="#6DB5CB"/>
</svg>
