<svg width="58" height="30" viewBox="0 0 58 30" fill="none" xmlns="http://www.w3.org/2000/svg">
<rect width="58" height="30" rx="15" fill="#FE7235"/>
<path d="M27.1386 8.85742H25.621V16.1035H27.1386V13.1094H28.8613V11.8652H27.1386V8.85742ZM17.3495 15.0645L17.9511 16.2949C21.6083 15.2627 23.7275 12.9521 23.7206 9.70508H17.9101V10.9355H22.0732C21.8134 12.7881 20.1454 14.2988 17.3495 15.0645ZM19.0175 18.7285C19.0038 20.2666 20.6581 21.21 23.1464 21.2031C25.6552 21.21 27.2753 20.2666 27.2753 18.7285C27.2753 17.2041 25.6552 16.2539 23.1464 16.2539C20.6581 16.2539 19.0038 17.2041 19.0175 18.7285ZM20.5214 18.7285C20.5146 17.915 21.5126 17.4434 23.1464 17.4434C24.7734 17.4434 25.7782 17.915 25.7851 18.7285C25.7782 19.5352 24.7734 20.0137 23.1464 20.0137C21.5126 20.0137 20.5146 19.5352 20.5214 18.7285ZM39.2382 8.87109H37.7206V15.8301H39.2382V12.8086H40.9745V11.5508H39.2382V8.87109ZM30.0234 15.0781H31.0488C32.8398 15.0781 34.7402 14.9688 36.7909 14.5586L36.6132 13.3145C34.8085 13.6631 33.1337 13.8066 31.5546 13.8271V9.47266H30.0234V15.0781ZM31.2402 21.0527H39.2382V16.4316H31.2402V21.0527ZM32.7304 19.8496V17.6211H37.748V19.8496H32.7304Z" fill="white"/>
</svg>
