<svg width="240" height="48" viewBox="0 0 240 48" fill="none" xmlns="http://www.w3.org/2000/svg">
<path d="M50.8769 6.9668V16.1953H49.7968V14.9375H47.2812V14.1582H49.7968V6.9668H50.8769ZM40.7871 12.5996C43.0498 12.5859 46.0986 12.5654 48.7031 12.2441L48.7714 13.0234C47.6914 13.1943 46.5498 13.3037 45.4355 13.3721V15.7715H44.3554V13.4268C43.125 13.4746 41.956 13.4746 40.9375 13.4746L40.7871 12.5996ZM41.7714 9.57812C41.7646 8.2998 42.9814 7.45898 44.7793 7.45898C46.5634 7.45898 47.7802 8.2998 47.7871 9.57812C47.7802 10.877 46.5634 11.6836 44.7793 11.6836C42.9814 11.6836 41.7646 10.877 41.7714 9.57812ZM42.5371 18.8477V15.293H43.6171V17.9453H51.1777V18.8477H42.5371ZM42.7968 9.57812C42.7832 10.3711 43.5898 10.8838 44.7793 10.8906C45.9345 10.8838 46.7548 10.3711 46.7617 9.57812C46.7548 8.79883 45.9345 8.26562 44.7793 8.2793C43.5898 8.26562 42.7832 8.79883 42.7968 9.57812ZM62.6413 6.95312V11.9707H64.6784V12.8594H62.6413V19.1074H61.5749V6.95312H62.6413ZM53.1667 9.79688V8.9082H56.2975V7.10352H57.3639V8.9082H60.3991V9.79688H53.1667ZM53.8639 13.5977C53.8571 11.957 55.1149 10.8086 56.8444 10.8086C58.5602 10.8086 59.8112 11.957 59.8249 13.5977C59.8112 15.2451 58.5602 16.3867 56.8444 16.3867C55.1149 16.3867 53.8571 15.2451 53.8639 13.5977ZM54.8893 13.5977C54.8825 14.7051 55.7096 15.4844 56.8444 15.4707C57.9655 15.4844 58.7858 14.7051 58.7995 13.5977C58.7858 12.4971 57.9655 11.7041 56.8444 11.7109C55.7096 11.7041 54.8825 12.4971 54.8893 13.5977ZM69.935 10.2207C69.9281 12.4424 71.4389 14.6709 73.2299 15.4844L72.5736 16.332C71.1859 15.6621 69.9896 14.2197 69.4086 12.4902C68.848 14.3223 67.6518 15.8604 66.2299 16.5781L65.5463 15.6758C67.3578 14.8486 68.8549 12.5244 68.8686 10.2207V8.00586H69.935V10.2207ZM74.5561 19.1348V6.95312H75.6361V19.1348H74.5561ZM87.8243 10.6445V11.5059H79.4982V7.4043H80.5646V10.6445H87.8243ZM77.9806 14.0352V13.1602H89.1095V14.0352H77.9806ZM79.4298 18.8066V15.2793H80.4962V17.918H87.8927V18.8066H79.4298ZM193.566 7.17188C196.267 7.17188 197.853 7.91699 197.859 9.26367C197.853 10.6445 196.267 11.3896 193.566 11.3965C190.853 11.3896 189.26 10.6445 189.26 9.26367C189.26 7.91699 190.853 7.17188 193.566 7.17188ZM188.029 13.0918V12.2168H199.104V13.0918H188.029ZM189.369 14.9648V14.1445H197.682V16.8652H190.463V18.123H198.051V18.9707H189.397V16.0723H196.629V14.9648H189.369ZM190.381 9.26367C190.367 10.1113 191.55 10.5762 193.566 10.5762C195.583 10.5762 196.759 10.1113 196.766 9.26367C196.759 8.46387 195.583 7.98535 193.566 7.97852C191.55 7.98535 190.367 8.46387 190.381 9.26367ZM30.4686 31.25C30.4686 32.9453 31.6991 34.5449 33.4764 35.1875L32.8749 36.0215C31.5419 35.4951 30.4755 34.4424 29.9559 33.1162C29.4432 34.5859 28.3358 35.748 26.9003 36.3223L26.3261 35.4473C28.1513 34.7773 29.4091 33.0752 29.4159 31.209V29.7051H30.4686V31.25ZM28.5272 40.8477V37.0332H29.6073V39.9453H36.662V40.8477H28.5272ZM32.6014 32.7266V31.8242H35.3085V28.9668H36.3886V38.0723H35.3085V32.7266H32.6014ZM43.9557 29.8418V30.7441H40.2643V32.2617H43.8189V33.1094H40.2643V34.791C42.0348 34.7842 43.1422 34.7158 44.4479 34.4629L44.5572 35.3516C43.1285 35.6318 41.9801 35.6865 40.0045 35.6934H39.2389V29.8418H43.9557ZM40.8248 37.8398V36.9648H49.0143V41.1074H47.9615V37.8398H40.8248ZM45.2818 36.2539V29.1992H46.2799V32.1387H47.9889V28.9668H49.0143V36.3359H47.9889V33.0137H46.2799V36.2539H45.2818ZM60.4779 28.9531V33.9707H62.515V34.8594H60.4779V41.1074H59.4114V28.9531H60.4779ZM51.0032 31.7969V30.9082H54.1341V29.1035H55.2005V30.9082H58.2357V31.7969H51.0032ZM51.7005 35.5977C51.6937 33.957 52.9515 32.8086 54.681 32.8086C56.3968 32.8086 57.6478 33.957 57.6614 35.5977C57.6478 37.2451 56.3968 38.3867 54.681 38.3867C52.9515 38.3867 51.6937 37.2451 51.7005 35.5977ZM52.7259 35.5977C52.7191 36.7051 53.5462 37.4844 54.681 37.4707C55.8021 37.4844 56.6224 36.7051 56.6361 35.5977C56.6224 34.4971 55.8021 33.7041 54.681 33.7109C53.5462 33.7041 52.7191 34.4971 52.7259 35.5977ZM67.7715 32.2207C67.7647 34.4424 69.2754 36.6709 71.0664 37.4844L70.4102 38.332C69.0225 37.6621 67.8262 36.2197 67.2452 34.4902C66.6846 36.3223 65.4883 37.8604 64.0664 38.5781L63.3829 37.6758C65.1944 36.8486 66.6914 34.5244 66.7051 32.2207V30.0059H67.7715V32.2207ZM72.3926 41.1348V28.9531H73.4727V41.1348H72.3926ZM85.5789 30.1836V31.4004C85.5652 32.8906 85.5652 34.5586 85.1277 37.0059L84.034 36.8828C84.492 34.5586 84.492 32.8564 84.4988 31.4004V31.0723H77.0066V30.1836H85.5789ZM75.8308 39.3848V38.4961H80.1785V34.1484H81.2312V38.4961H86.905V39.3848H75.8308ZM90.2065 39.084L89.1401 42.8027H88.1284L88.8804 39.084H90.2065ZM100.966 30.375V33.5469H102.811V29.2129H103.837V40.4922H102.811V34.4355H100.966V37.8398H96.3173V30.375H100.966ZM97.329 36.9785H99.954V31.2363H97.329V36.9785ZM105.245 41.1074V28.9531H106.284V41.1074H105.245ZM118.021 33.0684V33.957H109.654V29.582H110.748V33.0684H118.021ZM108.246 36.6094V35.7207H119.32V36.6094H116.435V41.1074H115.369V36.6094H112.211V41.1074H111.144V36.6094H108.246ZM131.741 34.5996V35.4473H120.612V34.5996H131.741ZM121.952 37.2246V36.418H130.346V39.002H123.045V40.1641H130.743V40.9434H121.965V38.2637H129.28V37.2246H121.952ZM122.02 30.1016V29.3223H130.305V31.8379H123.127V32.9043H130.524V33.6836H122.061V31.0996H129.225V30.1016H122.02ZM146.287 28.9668V32.6445H148.105V33.5469H146.287V37.1152H145.207V28.9668H146.287ZM136.744 35.8711C137.715 35.8711 138.849 35.8711 140.039 35.8369V34.9414C138.624 34.8115 137.708 34.1621 137.715 33.1504C137.708 32.043 138.849 31.3594 140.558 31.3594C142.281 31.3594 143.402 32.043 143.416 33.1504C143.402 34.1553 142.513 34.8047 141.105 34.9414V35.7959C142.24 35.7412 143.388 35.6455 144.455 35.4883L144.551 36.2676C141.912 36.7324 139.007 36.7529 136.867 36.7461L136.744 35.8711ZM137.045 30.8945V30.0742H140.039V28.8574H141.105V30.0742H144.086V30.8945H137.045ZM138.234 38.5781V37.7168H146.287V41.1074H145.207V38.5781H138.234ZM138.74 33.1504C138.733 33.7861 139.437 34.2168 140.558 34.2031C141.68 34.2168 142.39 33.7861 142.39 33.1504C142.39 32.5078 141.68 32.1113 140.558 32.125C139.437 32.1113 138.733 32.5078 138.74 33.1504ZM159.213 28.9668V37.8535H158.147V28.9668H159.213ZM149.465 32.7949C149.459 31.0449 150.833 29.8213 152.651 29.8145C154.469 29.8213 155.83 31.0449 155.836 32.7949C155.83 34.5654 154.469 35.7959 152.651 35.7891C150.833 35.7959 149.459 34.5654 149.465 32.7949ZM150.518 32.7949C150.504 34.0049 151.42 34.8457 152.651 34.8457C153.861 34.8457 154.784 34.0049 154.784 32.7949C154.784 31.6055 153.861 30.7578 152.651 30.7578C151.42 30.7578 150.504 31.6055 150.518 32.7949ZM151.366 40.8477V36.9512H152.432V39.9453H159.596V40.8477H151.366ZM167.628 31.0586V31.9336H161.531V31.0586H164.06V29.3223H165.126V31.0586H167.628ZM161.968 35.5156C161.968 33.9023 163.069 32.7607 164.579 32.7539C166.111 32.7607 167.204 33.9023 167.218 35.5156C167.204 37.1494 166.111 38.2979 164.579 38.3047C163.069 38.2979 161.968 37.1494 161.968 35.5156ZM162.925 35.5156C162.925 36.5957 163.615 37.3682 164.579 37.3613C165.55 37.3682 166.261 36.5957 166.261 35.5156C166.261 34.4492 165.55 33.6699 164.579 33.6562C163.615 33.6699 162.925 34.4492 162.925 35.5156ZM168.257 40.5059V29.2539H169.269V34.0801H170.882V28.9531H171.907V41.1074H170.882V34.9688H169.269V40.5059H168.257ZM185.066 38.6602V39.5488H173.937V38.6602H178.941V36.0352H175.25V29.8145H176.33V32.0156H182.646V29.8145H183.699V36.0352H179.994V38.6602H185.066ZM176.33 35.1602H182.646V32.8906H176.33V35.1602ZM189.926 32.4121C189.926 34.3467 190.87 36.4316 192.483 37.3887L191.868 38.2227C190.692 37.5117 189.851 36.2129 189.427 34.7295C188.983 36.3496 188.081 37.7441 186.864 38.4824L186.18 37.6758C187.862 36.6914 188.887 34.5381 188.887 32.4531V30.1016H189.926V32.4121ZM191.143 34.2305V33.3145H193.208V29.2129H194.219V40.4922H193.208V34.2305H191.143ZM195.696 41.1074V28.9531H196.735V41.1074H195.696ZM209.826 38.6465V39.5488H198.697V38.6465H201.458V35.3721C200.419 34.832 199.79 33.957 199.79 32.8496C199.79 30.9697 201.636 29.7324 204.234 29.7188C206.831 29.7324 208.677 30.9697 208.677 32.8496C208.677 33.9365 208.069 34.7979 207.064 35.3379V38.6465H209.826ZM200.829 32.8496C200.823 34.21 202.238 35.1191 204.234 35.1191C206.209 35.1191 207.638 34.21 207.638 32.8496C207.638 31.4893 206.209 30.5938 204.234 30.6074C202.238 30.5938 200.823 31.4893 200.829 32.8496ZM202.511 38.6465H205.984V35.7549C205.457 35.8916 204.87 35.9668 204.234 35.9668C203.612 35.9668 203.031 35.8984 202.511 35.7617V38.6465ZM213.045 30.1016L212.949 37.2109H211.801L211.705 30.1016H213.045ZM211.5 39.1934C211.486 38.7148 211.897 38.3184 212.375 38.3184C212.86 38.3184 213.257 38.7148 213.25 39.1934C213.257 39.6787 212.86 40.0752 212.375 40.082C211.897 40.0752 211.486 39.6787 211.5 39.1934Z" fill="#616161"/>
<path d="M103.834 6.87109V10.7539H105.556V12.0117H103.834V16.0996H102.316V6.87109H103.834ZM94.0992 9.45508V8.23828H97.0113V6.85742H98.5289V8.23828H101.427V9.45508H94.0992ZM94.7281 12.3262C94.7281 10.9043 95.9654 9.96094 97.7632 9.96094C99.5474 9.96094 100.778 10.9043 100.785 12.3262C100.778 13.7412 99.5474 14.6641 97.7632 14.6641C95.9654 14.6641 94.7281 13.7412 94.7281 12.3262ZM95.9175 18.9707V15.375H97.4351V17.7402H104.326V18.9707H95.9175ZM96.2047 12.3262C96.1978 13.0713 96.8267 13.4951 97.7632 13.4883C98.6998 13.4951 99.3355 13.0713 99.3355 12.3262C99.3355 11.5742 98.6998 11.1367 97.7632 11.1367C96.8267 11.1367 96.1978 11.5742 96.2047 12.3262ZM111.073 8.62109C111.066 10.248 112.091 11.7793 114.053 12.3945L113.301 13.5977C111.879 13.126 110.861 12.1826 110.3 10.9727C109.746 12.2715 108.707 13.3037 107.244 13.8027L106.479 12.6133C108.475 11.9365 109.507 10.2959 109.5 8.62109V7.44531H111.073V8.62109ZM108.324 16.0312V14.8145H116.76V19.2168H115.229V16.0312H108.324ZM115.229 14.2539V6.85742H116.76V14.2539H115.229ZM132.783 6.87109V19.2031H131.279V6.87109H132.783ZM122.461 13.5156C124.826 13.5225 127.834 13.5225 130.472 13.2148L130.582 14.3496C129.502 14.5068 128.394 14.6094 127.314 14.6641V18.834H125.783V14.7256C124.676 14.7598 123.609 14.7529 122.652 14.7461L122.461 13.5156ZM123.486 12.3945V7.4043H125.017V8.68945H128.066V7.4043H129.57V12.3945H123.486ZM125.017 11.1777H128.066V9.86523H125.017V11.1777ZM145.559 6.85742V19.2168H144.11V6.85742H145.559ZM134.69 15.0469H135.811V9.55078H134.936V8.32031H140.596V9.55078H139.721V14.8828C140.111 14.8486 140.48 14.8076 140.829 14.7598L140.924 15.8672C138.976 16.2637 136.433 16.3115 134.868 16.3047L134.69 15.0469ZM137.178 15.0195C137.554 15.0127 137.944 14.999 138.327 14.9785V9.55078H137.178V15.0195ZM140.282 12.7773V11.4238H141.649V7.11719H143.098V18.6016H141.649V12.7773H140.282ZM151.212 7.71875C153.174 7.71191 154.603 8.94922 154.616 10.6992C154.603 12.4561 153.174 13.6865 151.212 13.6934C149.271 13.6865 147.815 12.4561 147.821 10.6992C147.815 8.94922 149.271 7.71191 151.212 7.71875ZM147.261 15.4023C149.489 15.4023 152.572 15.375 155.245 14.9922L155.368 16.0996C152.6 16.626 149.633 16.6465 147.452 16.6465L147.261 15.4023ZM149.325 10.6992C149.319 11.7314 150.132 12.3672 151.212 12.3672C152.306 12.3672 153.119 11.7314 153.126 10.6992C153.119 9.67383 152.313 9.03125 151.212 9.03125C150.132 9.03125 149.319 9.67383 149.325 10.6992ZM155.984 19.2305V6.85742H157.501V19.2305H155.984ZM167.85 10.3711C167.85 12.3945 169.04 14.5273 171.036 15.3613L170.202 16.5645C168.739 15.9287 167.672 14.6367 167.105 13.0645C166.538 14.7598 165.451 16.1816 164.008 16.8652L163.133 15.6758C165.082 14.7734 166.298 12.4697 166.305 10.3711V9.33203H163.585V8.07422H170.557V9.33203H167.85V10.3711ZM171.938 19.2168V6.85742H173.469V19.2168H171.938ZM185.917 14.7461V19.2168H184.4V15.9492H177.495V14.7461H185.917ZM175.732 10.5352C175.732 8.78516 177.133 7.52734 178.999 7.54102C180.018 7.53418 180.907 7.91699 181.488 8.56641H184.4V6.85742H185.917V14.1582H184.4V12.5176H181.501C180.913 13.1738 180.025 13.5703 178.999 13.5703C177.133 13.5703 175.732 12.3125 175.732 10.5352ZM177.181 10.5352C177.181 11.6084 177.94 12.2783 178.999 12.2852C180.011 12.2783 180.784 11.6084 180.79 10.5352C180.784 9.50293 180.011 8.81934 178.999 8.82617C177.94 8.81934 177.181 9.50293 177.181 10.5352ZM182.144 11.2871H184.4V9.81055H182.151C182.205 10.043 182.24 10.2822 182.24 10.5352C182.24 10.7949 182.205 11.0479 182.144 11.2871Z" fill="#FE7332"/>
<path d="M93.6754 20.1465H187.537V21.3223H93.6754V20.1465Z" fill="#FE7332"/>
</svg>
