<svg width="200" height="45" viewBox="0 0 200 45" fill="none" xmlns="http://www.w3.org/2000/svg">
<path d="M28.943 6.729V29.6873C27.229 29.5934 25.4823 29.5476 23.7072 29.5476C21.5871 29.5476 19.5762 29.5934 17.6767 29.6873V29.0323L10.5239 29.6873C9.77502 29.7506 9.22918 29.7812 8.88638 29.7812C6.2685 29.7812 4.29691 29.1349 2.97159 27.8402C1.64627 26.5476 0.984708 24.7463 0.984708 22.4407V12.0128L0 6.729H28.943ZM11.62 20.242C11.7292 20.5542 11.9715 20.7966 12.3449 20.9669C12.7182 21.1394 13.3099 21.1939 14.1221 21.1306L17.6767 20.8511V15.0543H11.4584V18.8424C11.4584 19.4669 11.513 19.9341 11.6222 20.2442L11.62 20.242Z" fill="#FBF4EE"/>
<path d="M33.0576 11.7575V8.0588C33.0576 7.97364 33.0489 7.88631 33.0314 7.80334L32.2978 4.29464C32.134 3.51735 32.7279 2.78592 33.5227 2.78592H40.0794C40.7715 2.78592 41.3326 3.34705 41.3326 4.03918V36.1721C41.3326 36.8839 40.7409 37.4516 40.0292 37.4232C38.6187 37.3664 37.4331 37.3402 36.4702 37.3402C35.658 37.3402 34.955 37.3533 34.3633 37.3795C33.6515 37.4123 33.0554 36.8424 33.0554 36.1284V25.6569C33.0554 24.9407 32.455 24.3709 31.741 24.4058L31.5664 24.4145C30.8502 24.4495 30.252 23.8796 30.252 23.1635V14.2487C30.252 13.5325 30.8524 12.9627 31.5664 12.9976L31.741 13.0064C32.4572 13.0413 33.0554 12.4714 33.0554 11.7553L33.0576 11.7575ZM43.6623 1.94531H50.8369C51.5291 1.94531 52.0902 2.50644 52.0902 3.19858V37.7703C52.0902 38.4756 51.5094 39.0411 50.8042 39.0214C49.7168 38.9908 48.4308 38.9756 46.9483 38.9756C45.7322 38.9756 44.6492 38.9887 43.7016 39.017C42.9964 39.0389 42.4134 38.4712 42.4134 37.766V3.19858C42.4134 2.50644 42.9745 1.94531 43.6667 1.94531H43.6623Z" fill="#FBF4EE"/>
<path d="M61.384 21.3208C59.8556 20.2291 59.0936 18.3273 59.0936 15.6156V5.40607C59.0936 5.26196 59.0805 5.12004 59.0543 4.98031L58.6264 2.7205C58.36 1.30785 59.443 0 60.8796 0H68.4429C69.7093 0 70.7355 1.02619 70.7355 2.29256V10.334C70.7355 11.5501 70.9385 12.3842 71.3424 12.8361C71.7464 13.2881 72.6197 13.5152 73.9603 13.5152C77.5454 13.5152 85.5388 13.4824 90.5737 13.1942C91.9209 13.1178 93.0431 14.2095 93.0016 15.5588L92.8291 20.9103C92.7898 22.1548 91.7637 23.1395 90.5191 23.1308L68.8643 22.9605C65.4036 22.9605 62.9102 22.4146 61.384 21.323V21.3208Z" fill="#FBF4EE"/>
<path d="M56.9891 26.5653C56.9629 25.8317 57.5612 25.2291 58.2948 25.2488C64.0393 25.4103 70.3056 25.4889 77.0937 25.4889C83.8819 25.4889 89.5107 25.4103 94.4298 25.2553C95.1678 25.2313 95.7704 25.8405 95.7399 26.5784L95.4713 33.2465C95.4429 33.9277 94.8818 34.467 94.2006 34.467H90.3294C89.6111 34.467 89.0347 35.0609 89.0587 35.7792L89.3032 43.4407C89.3251 44.1591 88.7508 44.753 88.0325 44.753H79.8754C79.1505 44.753 78.5719 44.1482 78.6046 43.4233L78.9518 35.7967C78.9846 35.0718 78.406 34.467 77.6811 34.467H75.9016C75.1767 34.467 74.5981 35.0718 74.6309 35.7967L74.978 43.4233C75.0108 44.1482 74.4322 44.753 73.7073 44.753H65.5502C64.8318 44.753 64.2554 44.1591 64.2794 43.4407L64.524 35.7792C64.5458 35.0609 63.9716 34.467 63.2532 34.467H58.5C57.8144 34.467 57.2533 33.9255 57.2293 33.24L56.9935 26.5653H56.9891Z" fill="#FBF4EE"/>
<path d="M126.759 6.76855V29.7269C125.045 29.633 123.299 29.5871 121.524 29.5871C119.404 29.5871 117.393 29.633 115.493 29.7269V29.0719L108.34 29.7269C107.591 29.7902 107.046 29.8208 106.703 29.8208C104.085 29.8208 102.113 29.1745 100.788 27.8797C99.4627 26.5872 98.8011 24.7859 98.8011 22.4802V12.0524L97.8164 6.76855H126.759ZM109.436 20.2815C109.546 20.5938 109.788 20.8361 110.161 21.0064C110.535 21.1789 111.126 21.2335 111.939 21.1702L115.493 20.8907V15.0938H109.275V18.882C109.275 19.5064 109.329 19.9737 109.439 20.2837L109.436 20.2815Z" fill="#FBF4EE"/>
<path d="M138.921 40.2879C137.445 40.2879 136.068 40.3097 134.786 40.3556C133.843 40.3883 133.059 39.6351 133.059 38.6897V27.8579C133.059 26.919 132.282 26.1636 131.343 26.1919L129.882 26.2356C128.943 26.264 128.166 25.5085 128.166 24.5697V15.1331C128.166 14.1877 128.952 13.4301 129.9 13.4672L131.328 13.5239C132.273 13.5611 133.061 12.8056 133.061 11.858V7.56984C133.061 7.48251 133.055 7.39517 133.039 7.30784L132.496 3.89302C132.334 2.87993 133.116 1.96509 134.142 1.96509H142.926C143.847 1.96509 144.592 2.71181 144.592 3.63101V38.6962C144.592 39.6416 143.808 40.3949 142.862 40.3621C141.476 40.3141 140.162 40.2879 138.924 40.2879H138.921Z" fill="#FBF4EE"/>
<path d="M187.849 18.1507L188.192 18.1638C189.103 18.1987 189.863 17.4695 189.863 16.559V10.26C189.863 9.3473 189.105 8.61804 188.192 8.65516L187.849 8.66826C186.939 8.7032 186.179 7.97394 186.179 7.06347V3.75346C186.179 2.867 185.461 2.14648 184.572 2.14648H175.66C174.671 2.14648 173.917 3.03076 174.072 4.00673L174.629 7.49578C174.642 7.57875 174.649 7.6639 174.649 7.74906V20.4869C171.614 20.7096 168.594 20.8232 165.588 20.8232C164.199 20.8232 163.293 20.5896 162.874 20.1201C162.454 19.6529 162.245 18.7883 162.245 17.5284V8.46302C162.245 7.55692 161.509 6.82112 160.603 6.82112H151.147C150.118 6.82112 149.341 7.75779 149.533 8.7687L150.153 12.0481C150.173 12.1486 150.182 12.2512 150.182 12.3538V23.0044C150.182 25.8144 150.972 27.7838 152.555 28.9148C154.138 30.0458 156.721 30.6113 160.306 30.6113H174.647V38.9344C174.647 39.8448 175.402 40.5719 176.312 40.5392C177.612 40.4933 179.009 40.4693 180.509 40.4693C181.767 40.4693 183.101 40.4955 184.511 40.5457C185.422 40.5785 186.177 39.8514 186.177 38.9409V32.4999C186.177 31.5873 186.935 30.858 187.847 30.8951L188.19 30.9082C189.101 30.9432 189.86 30.2139 189.86 29.3035V22.9563C189.86 22.0437 189.103 21.3144 188.19 21.3516L187.847 21.3647C186.937 21.3996 186.177 20.6703 186.177 19.7599C186.177 18.8494 186.935 18.118 187.847 18.1551L187.849 18.1507Z" fill="#FBF4EE"/>
<path d="M195.852 44.7595C198.143 44.7595 200 42.9022 200 40.6111C200 38.32 198.143 36.4626 195.852 36.4626C193.56 36.4626 191.703 38.32 191.703 40.6111C191.703 42.9022 193.56 44.7595 195.852 44.7595Z" fill="#6AADC1"/>
</svg>
