<svg width="58" height="30" viewBox="0 0 58 30" fill="none" xmlns="http://www.w3.org/2000/svg">
<rect x="0.5" y="0.5" width="57" height="29" rx="14.5" fill="white" stroke="#E0E0E0"/>
<path d="M27.9602 16.7461H19.5383V17.9492H26.4426V21.2168H27.9602V16.7461ZM17.7746 12.5352C17.7746 14.3125 19.176 15.5703 21.0422 15.5703C22.0676 15.5703 22.9563 15.1738 23.5441 14.5176H26.4426V16.1582H27.9602V8.85742H26.4426V10.5664H23.5305C22.9494 9.91699 22.0607 9.53418 21.0422 9.54102C19.176 9.52734 17.7746 10.7852 17.7746 12.5352ZM19.2238 12.5352C19.2238 11.5029 19.9826 10.8193 21.0422 10.8262C22.0539 10.8193 22.8264 11.5029 22.8332 12.5352C22.8264 13.6084 22.0539 14.2783 21.0422 14.2852C19.9826 14.2783 19.2238 13.6084 19.2238 12.5352ZM24.1867 13.2871C24.2482 13.0479 24.2824 12.7949 24.2824 12.5352C24.2824 12.2822 24.2482 12.043 24.1936 11.8105H26.4426V13.2871H24.1867ZM34.1398 10.5664V9.5H32.6086V10.6074C32.6086 12.3711 31.59 14.0186 29.5871 14.709L30.3938 15.9121C31.8635 15.3857 32.882 14.3398 33.4221 13.0137C33.9689 14.1689 34.9191 15.085 36.2316 15.5566L37.052 14.3672C35.1311 13.7383 34.1262 12.1865 34.1398 10.5664ZM31.4738 21.0664H39.4582V16.541H31.4738V21.0664ZM32.9777 19.8359V17.7578H37.9543V19.8359H32.9777ZM37.9406 16.0352H39.4582V13.0137H41.1809V11.7695H39.4582V8.85742H37.9406V16.0352Z" fill="#757575"/>
</svg>
