<svg width="24" height="24" viewBox="0 0 24 24" fill="none" xmlns="http://www.w3.org/2000/svg">
<circle cx="11.5" cy="11.5" r="10.1" fill="#FCF5EF" stroke="#6DB5CB" stroke-width="0.8"/>
<g clip-path="url(#clip0_614_19880)">
<path d="M15 5C13.3459 5 12 6.60869 12 8.5864C12 9.97549 12.6783 11.2365 13.7143 11.8243V16.6552C13.7143 17.3967 14.2911 18 15 18C15.7089 18 16.2857 17.3967 16.2857 16.6552V11.8243C17.3217 11.2365 18 9.97549 18 8.5864C17.9997 6.60869 16.6538 5 14.9997 5H15Z" fill="#6DB5CB"/>
<path d="M10.7145 5.44824C10.4776 5.44824 10.286 5.64889 10.286 5.89651V9.03437C10.286 9.28199 10.0941 9.48264 9.8574 9.48264H9.42883C9.19209 9.48264 9.00026 9.28199 9.00026 9.03437V5.89678C9.00026 5.64916 8.80842 5.44851 8.57168 5.44851C8.33495 5.44851 8.14311 5.64916 8.14311 5.89678V9.03464C8.14311 9.28226 7.95128 9.48291 7.71454 9.48291H7.28597C7.04923 9.48291 6.8574 9.28226 6.8574 9.03464V5.89678C6.8574 5.64916 6.66582 5.44851 6.42883 5.44851C6.19184 5.44851 6 5.64889 6 5.89678V9.93091C6 10.7647 6.54694 11.4678 7.28571 11.6674V16.6018C7.28571 17.2523 7.70485 17.8498 8.31505 17.9736C9.13597 18.1403 9.85714 17.4842 9.85714 16.6546V11.6674C10.5959 11.4678 11.1429 10.765 11.1429 9.93091V5.89651C11.1429 5.64889 10.9513 5.44824 10.7143 5.44824H10.7145Z" fill="#6DB5CB"/>
</g>
<defs>
<clipPath id="clip0_614_19880">
<rect width="12" height="13" fill="white" transform="translate(6 5)"/>
</clipPath>
</defs>
</svg>
