<svg width="28" height="28" viewBox="0 0 28 28" fill="none" xmlns="http://www.w3.org/2000/svg">
<circle cx="14" cy="14" r="13.3" fill="#FCF5EF" stroke="#6DB5CB" stroke-width="1.4"/>
<path d="M18.666 5.33325C16.4606 5.33325 14.666 7.47817 14.666 10.1151C14.666 11.9672 15.5704 13.6486 16.9517 14.4324V20.8735C16.9517 21.8622 17.7208 22.6666 18.666 22.6666C19.6113 22.6666 20.3803 21.8622 20.3803 20.8735V14.4324C21.7616 13.6486 22.666 11.9672 22.666 10.1151C22.6657 7.47817 20.8711 5.33325 18.6657 5.33325H18.666Z" fill="#6DB5CB"/>
<path d="M12.9521 5.93091C12.6361 5.93091 12.3806 6.19845 12.3806 6.5286V10.7124C12.3806 11.0426 12.1249 11.3101 11.8092 11.3101H11.2378C10.9221 11.3101 10.6664 11.0426 10.6664 10.7124V6.52895C10.6664 6.1988 10.4106 5.93126 10.0949 5.93126C9.77928 5.93126 9.5235 6.1988 9.5235 6.52895V10.7128C9.5235 11.0429 9.26772 11.3105 8.95207 11.3105H8.38064C8.065 11.3105 7.80921 11.0429 7.80921 10.7128V6.52895C7.80921 6.1988 7.55377 5.93126 7.23778 5.93126C6.9218 5.93126 6.66602 6.19845 6.66602 6.52895V11.9078C6.66602 13.0196 7.39527 13.957 8.3803 14.2231V20.8023C8.3803 21.6697 8.93914 22.4663 9.75275 22.6313C10.8473 22.8537 11.8089 21.9789 11.8089 20.8728V14.2231C12.7939 13.957 13.5232 13.0199 13.5232 11.9078V6.5286C13.5232 6.19845 13.2677 5.93091 12.9517 5.93091H12.9521Z" fill="#6DB5CB"/>
</svg>
