<svg width="66" height="30" viewBox="0 0 66 30" fill="none" xmlns="http://www.w3.org/2000/svg">
<rect width="66" height="30" rx="15" fill="#FCF5EF"/>
<path d="M32.7893 9.41406H31.3479V13.5391H30.3518V9.58984H28.9455V19.5625H30.3518V14.7461H31.3479V20.0781H32.7893V9.41406ZM24.0237 17.4766H24.7502C25.8518 17.4824 27.0705 17.4062 28.5002 17.1602L28.3479 15.8711C27.3225 16.0703 26.3791 16.1465 25.5237 16.1699V10.5977H24.0237V17.4766ZM46.4534 15.2969H36.7268V16.4922H40.8284V20.0781H42.3049V16.4922H46.4534V15.2969ZM37.2073 13.5039L37.758 14.6758C39.6155 14.4238 40.9455 13.627 41.5959 12.5312C42.2405 13.627 43.5823 14.4238 45.4573 14.6758L45.9963 13.5039C43.8049 13.2402 42.6272 12.1973 42.4748 11.1484H45.5862V9.97656H37.6057V11.1484H40.717C40.5588 12.1973 39.3635 13.2402 37.2073 13.5039ZM56.0862 9.42578H54.5979V11.207H52.6291V10.1172H51.1526V11.7578H49.0549V10.1172H47.5549V15.6016H52.6291V14.6875H54.5979V17.2891H56.0862V9.42578ZM48.9846 19.8906H56.3088V18.6953H50.4963V16.5039H48.9846V19.8906ZM49.0549 14.4297V12.8945H51.1526V14.4297H49.0549ZM52.6291 13.4922V12.4141H54.5979V13.4922H52.6291Z" fill="#FE7235"/>
<path d="M15 11V9.5L13 11.5L15 13.5V12C16.655 12 18 13.345 18 15C18 15.505 17.875 15.985 17.65 16.4L18.38 17.13C18.77 16.515 19 15.785 19 15C19 12.79 17.21 11 15 11ZM15 18C13.345 18 12 16.655 12 15C12 14.495 12.125 14.015 12.35 13.6L11.62 12.87C11.23 13.485 11 14.215 11 15C11 17.21 12.79 19 15 19V20.5L17 18.5L15 16.5V18Z" fill="#FE7235"/>
</svg>
