<svg width="28" height="28" viewBox="0 0 28 28" fill="none" xmlns="http://www.w3.org/2000/svg">
<circle cx="14" cy="14" r="13.3" fill="#757575" stroke="#424242" stroke-width="1.4"/>
<path d="M18.668 5.33325C16.4625 5.33325 14.668 7.47817 14.668 10.1151C14.668 11.9672 15.5724 13.6486 16.9537 14.4324V20.8735C16.9537 21.8622 17.7227 22.6666 18.668 22.6666C19.6132 22.6666 20.3823 21.8622 20.3823 20.8735V14.4324C21.7635 13.6486 22.668 11.9672 22.668 10.1151C22.6676 7.47817 20.8731 5.33325 18.6676 5.33325H18.668Z" fill="#E0E0E0"/>
<path d="M12.954 5.93091C12.638 5.93091 12.3826 6.19845 12.3826 6.5286V10.7124C12.3826 11.0426 12.1268 11.3101 11.8112 11.3101H11.2397C10.9241 11.3101 10.6683 11.0426 10.6683 10.7124V6.52895C10.6683 6.1988 10.4125 5.93126 10.0969 5.93126C9.78123 5.93126 9.52545 6.1988 9.52545 6.52895V10.7128C9.52545 11.0429 9.26967 11.3105 8.95402 11.3105H8.38259C8.06695 11.3105 7.81117 11.0429 7.81117 10.7128V6.52895C7.81117 6.1988 7.55572 5.93126 7.23974 5.93126C6.92375 5.93126 6.66797 6.19845 6.66797 6.52895V11.9078C6.66797 13.0196 7.39722 13.957 8.38225 14.2231V20.8023C8.38225 21.6697 8.9411 22.4663 9.7547 22.6313C10.8493 22.8537 11.8108 21.9789 11.8108 20.8728V14.2231C12.7959 13.957 13.5251 13.0199 13.5251 11.9078V6.5286C13.5251 6.19845 13.2697 5.93091 12.9537 5.93091H12.954Z" fill="#E0E0E0"/>
</svg>
