<svg width="60" height="24" viewBox="0 0 60 24" fill="none" xmlns="http://www.w3.org/2000/svg">
<rect width="60" height="24" rx="12" fill="#FE7332"/>
<path d="M29.7151 8.01172H28.5139V11.4492H27.6838V8.1582H26.5119V16.4688H27.6838V12.4551H28.5139V16.8984H29.7151V8.01172ZM22.4104 14.7305H23.0159C23.9338 14.7354 24.9494 14.6719 26.1409 14.4668L26.0139 13.3926C25.1594 13.5586 24.3733 13.6221 23.6604 13.6416V8.99805H22.4104V14.7305ZM41.1018 12.9141H32.9963V13.9102H36.4143V16.8984H37.6448V13.9102H41.1018V12.9141ZM33.3967 11.4199L33.8557 12.3965C35.4035 12.1865 36.5119 11.5225 37.0539 10.6094C37.591 11.5225 38.7092 12.1865 40.2717 12.3965L40.7209 11.4199C38.8948 11.2002 37.9133 10.3311 37.7864 9.45703H40.3791V8.48047H33.7287V9.45703H36.3215C36.1897 10.3311 35.1936 11.2002 33.3967 11.4199ZM49.1291 8.02148H47.8889V9.50586H46.2483V8.59766H45.0178V9.96484H43.2698V8.59766H42.0198V13.168H46.2483V12.4062H47.8889V14.5742H49.1291V8.02148ZM43.2112 16.7422H49.3147V15.7461H44.4709V13.9199H43.2112V16.7422ZM43.2698 12.1914V10.9121H45.0178V12.1914H43.2698ZM46.2483 11.4102V10.5117H47.8889V11.4102H46.2483Z" fill="#FCF5EF"/>
<path d="M12.7868 8V6.5L10.8196 8.5L12.7868 10.5V9C14.4147 9 15.7377 10.345 15.7377 12C15.7377 12.505 15.6147 12.985 15.3934 13.4L16.1114 14.13C16.495 13.515 16.7213 12.785 16.7213 12C16.7213 9.79 14.9606 8 12.7868 8ZM12.7868 15C11.159 15 9.83602 13.655 9.83602 12C9.83602 11.495 9.95897 11.015 10.1803 10.6L9.46225 9.87C9.07865 10.485 8.85242 11.215 8.85242 12C8.85242 14.21 10.6131 16 12.7868 16V17.5L14.7541 15.5L12.7868 13.5V15Z" fill="#FCF5EF"/>
</svg>
