<svg width="58" height="30" viewBox="0 0 58 30" fill="none" xmlns="http://www.w3.org/2000/svg">
<rect x="0.5" y="0.5" width="57" height="29" rx="14.5" fill="white" stroke="#E0E0E0"/>
<path d="M27.3586 8.85742H25.841V16.1035H27.3586V13.1094H29.0813V11.8652H27.3586V8.85742ZM17.5695 15.0645L18.1711 16.2949C21.8283 15.2627 23.9475 12.9521 23.9406 9.70508H18.1301V10.9355H22.2932C22.0334 12.7881 20.3654 14.2988 17.5695 15.0645ZM19.2375 18.7285C19.2238 20.2666 20.8781 21.21 23.3664 21.2031C25.8752 21.21 27.4953 20.2666 27.4953 18.7285C27.4953 17.2041 25.8752 16.2539 23.3664 16.2539C20.8781 16.2539 19.2238 17.2041 19.2375 18.7285ZM20.7414 18.7285C20.7346 17.915 21.7326 17.4434 23.3664 17.4434C24.9934 17.4434 25.9982 17.915 26.0051 18.7285C25.9982 19.5352 24.9934 20.0137 23.3664 20.0137C21.7326 20.0137 20.7346 19.5352 20.7414 18.7285ZM39.4582 8.87109H37.9406V15.8301H39.4582V12.8086H41.1945V11.5508H39.4582V8.87109ZM30.2434 15.0781H31.2688C33.0598 15.0781 34.9602 14.9688 37.0109 14.5586L36.8332 13.3145C35.0285 13.6631 33.3537 13.8066 31.7746 13.8271V9.47266H30.2434V15.0781ZM31.4602 21.0527H39.4582V16.4316H31.4602V21.0527ZM32.9504 19.8496V17.6211H37.968V19.8496H32.9504Z" fill="#757575"/>
</svg>
