<svg width="50" height="24" viewBox="0 0 50 24" fill="none" xmlns="http://www.w3.org/2000/svg">
<rect x="0.5" y="0.5" width="49" height="23" rx="11.5" fill="white" stroke="#E0E0E0"/>
<path d="M23.3359 6.44922H22.0352V12.6602H23.3359V10.0938H24.8125V9.02734H23.3359V6.44922ZM14.9453 11.7695L15.4609 12.8242C18.5957 11.9395 20.4121 9.95898 20.4062 7.17578H15.4258V8.23047H18.9941C18.7715 9.81836 17.3418 11.1133 14.9453 11.7695ZM16.375 14.9102C16.3633 16.2285 17.7812 17.0371 19.9141 17.0312C22.0645 17.0371 23.4531 16.2285 23.4531 14.9102C23.4531 13.6035 22.0645 12.7891 19.9141 12.7891C17.7812 12.7891 16.3633 13.6035 16.375 14.9102ZM17.6641 14.9102C17.6582 14.2129 18.5137 13.8086 19.9141 13.8086C21.3086 13.8086 22.1699 14.2129 22.1758 14.9102C22.1699 15.6016 21.3086 16.0117 19.9141 16.0117C18.5137 16.0117 17.6582 15.6016 17.6641 14.9102ZM33.707 6.46094H32.4062V12.4258H33.707V9.83594H35.1953V8.75781H33.707V6.46094ZM25.8086 11.7812H26.6875C28.2227 11.7812 29.8516 11.6875 31.6094 11.3359L31.457 10.2695C29.9102 10.5684 28.4746 10.6914 27.1211 10.709V6.97656H25.8086V11.7812ZM26.8516 16.9023H33.707V12.9414H26.8516V16.9023ZM28.1289 15.8711V13.9609H32.4297V15.8711H28.1289Z" fill="#757575"/>
</svg>
